<svg width="79" height="60" viewBox="0 0 79 60" fill="none" xmlns="http://www.w3.org/2000/svg">
<path d="M61.1207 0.219299H10.4997C10.2511 0.219579 10.0127 0.317893 9.83696 0.492672C9.66117 0.667451 9.56229 0.904423 9.56201 1.1516V44.1897C9.56229 44.4369 9.66117 44.6739 9.83696 44.8486C10.0127 45.0234 10.2511 45.1217 10.4997 45.122H61.1207C61.3693 45.1217 61.6076 45.0234 61.7834 44.8486C61.9592 44.6739 62.0581 44.4369 62.0583 44.1897V1.1516C62.0581 0.904423 61.9592 0.667451 61.7834 0.492672C61.6076 0.317893 61.3693 0.219579 61.1207 0.219299ZM61.6819 44.1899C61.6818 44.3381 61.6227 44.4802 61.5176 44.5852C61.4124 44.6902 61.2697 44.7496 61.1207 44.7503H10.4997C10.3506 44.7498 10.2077 44.6906 10.1025 44.5855C9.99726 44.4804 9.93827 44.3381 9.93847 44.1899V1.1516C9.93827 1.00333 9.99726 0.861033 10.1025 0.755962C10.2077 0.650892 10.3506 0.591632 10.4997 0.591193H61.1207C61.2697 0.591911 61.4124 0.651259 61.5176 0.756269C61.6227 0.861278 61.6818 1.00341 61.6819 1.1516V44.1899Z" fill="#3F3D56"/>
<path d="M22.1842 37.4696C22.1842 37.5359 22.1824 37.6023 22.1789 37.6668C22.1277 38.638 21.7036 39.5526 20.9941 40.2221C20.2846 40.8915 19.3438 41.2647 18.3657 41.2647C17.3875 41.2647 16.4467 40.8915 15.7372 40.2221C15.0277 39.5526 14.6036 38.638 14.5524 37.6668C14.5489 37.6023 14.5471 37.5359 14.5471 37.4696C14.5471 36.4626 14.9494 35.497 15.6655 34.785C16.3816 34.073 17.3529 33.673 18.3656 33.673C19.3783 33.673 20.3495 34.073 21.0657 34.785C21.7818 35.497 22.1841 36.4626 22.1841 37.4696H22.1842Z" fill="#3199D8"/>
<path d="M57.1869 34.938H27.1835C27.0189 34.9441 26.863 35.0135 26.7487 35.1316C26.6344 35.2496 26.5706 35.407 26.5706 35.5709C26.5706 35.7347 26.6344 35.8922 26.7487 36.0102C26.863 36.1282 27.0189 36.1976 27.1835 36.2038H57.1869C57.3556 36.2099 57.5197 36.1491 57.6434 36.0349C57.767 35.9207 57.84 35.7624 57.8464 35.5948C57.8528 35.4271 57.792 35.2638 57.6773 35.1406C57.5627 35.0175 57.4036 34.9446 57.235 34.938C57.219 34.9373 57.2029 34.9373 57.1869 34.938Z" fill="#3199D8"/>
<path d="M40.0938 38.7353H27.1835C27.0149 38.7353 26.8532 38.8019 26.734 38.9204C26.6148 39.0389 26.5479 39.1997 26.5479 39.3673C26.5479 39.535 26.6148 39.6957 26.734 39.8142C26.8532 39.9328 27.0149 39.9994 27.1835 39.9994H40.0938C40.2624 39.9996 40.4242 39.9333 40.5436 39.815C40.663 39.6967 40.7303 39.536 40.7306 39.3684C40.7308 39.2008 40.6641 39.0399 40.5451 38.9212C40.4261 38.8024 40.2645 38.7356 40.0959 38.7353H40.0938Z" fill="#E6E6E6"/>
<path d="M73.1467 30.2425H22.5255C22.242 30.2422 21.9702 30.1301 21.7698 29.9308C21.5694 29.7315 21.4566 29.4613 21.4563 29.1795V7.09119C21.4566 6.80935 21.5694 6.53914 21.7698 6.33985C21.9702 6.14056 22.242 6.02846 22.5255 6.02814H73.1461C73.4296 6.02846 73.7013 6.14056 73.9018 6.33985C74.1022 6.53914 74.215 6.80935 74.2153 7.09119V29.1789C74.2151 29.4607 74.1025 29.731 73.9022 29.9304C73.7019 30.1298 73.4302 30.2421 73.1467 30.2425Z" fill="#98CCEC"/>
<path d="M32.8353 13.858C32.6665 13.8506 32.5016 13.9103 32.3771 14.0238C32.2525 14.1372 32.1784 14.2953 32.171 14.4631C32.1636 14.6309 32.2236 14.7948 32.3378 14.9187C32.4519 15.0425 32.6109 15.1162 32.7797 15.1235C32.7982 15.1243 32.8167 15.1243 32.8353 15.1235H62.838C63.002 15.1164 63.1569 15.0466 63.2704 14.9287C63.3839 14.8109 63.4473 14.654 63.4473 14.4908C63.4473 14.3276 63.3839 14.1706 63.2704 14.0528C63.1569 13.9349 63.002 13.8651 62.838 13.858H32.8353Z" fill="white"/>
<path d="M32.8353 17.5245C32.6665 17.5172 32.5016 17.5768 32.3771 17.6903C32.2525 17.8038 32.1784 17.9619 32.171 18.1297C32.1636 18.2975 32.2236 18.4614 32.3378 18.5852C32.4519 18.7091 32.6109 18.7828 32.7797 18.7901C32.7982 18.7909 32.8167 18.7909 32.8353 18.7901H62.838C63.002 18.783 63.1569 18.7132 63.2704 18.5953C63.3839 18.4774 63.4473 18.3205 63.4473 18.1573C63.4473 17.9941 63.3839 17.8372 63.2704 17.7193C63.1569 17.6014 63.002 17.5317 62.838 17.5245H32.8353Z" fill="white"/>
<path d="M32.8353 21.1465C32.6713 21.1537 32.5164 21.2234 32.4029 21.3413C32.2894 21.4592 32.2261 21.6161 32.2261 21.7793C32.2261 21.9425 32.2894 22.0994 32.4029 22.2173C32.5164 22.3352 32.6713 22.405 32.8353 22.4121H45.7456C45.8292 22.4158 45.9127 22.403 45.9913 22.3745C46.0699 22.3461 46.1421 22.3025 46.2038 22.2463C46.2655 22.1901 46.3154 22.1224 46.3508 22.047C46.3861 21.9716 46.4062 21.8901 46.4098 21.807C46.4135 21.7239 46.4007 21.6409 46.372 21.5627C46.3434 21.4845 46.2996 21.4128 46.2431 21.3514C46.1866 21.2901 46.1185 21.2404 46.0426 21.2053C45.9668 21.1701 45.8848 21.1502 45.8012 21.1465C45.7827 21.1457 45.7642 21.1457 45.7456 21.1465H32.8353Z" fill="white"/>
<path d="M78.0772 57.1957C78.0772 58.4523 60.7282 58.5861 39.3754 59.471C18.0416 60.3549 0.673584 58.4523 0.673584 57.1957C0.673584 55.9391 18.1227 53.4108 39.3754 54.9204C60.7282 56.4373 78.0772 55.9391 78.0772 57.1957Z" fill="#E6E6E6"/>
</svg>
